HIERARCHY
ROOT hip
{
  OFFSET 0 0 0
  CHANNELS 6 Xposition Yposition Zposition Zrotation Yrotation Xrotation
  JOINT abdomen
  {
    OFFSET 0 20.6881 -0.73152
    CHANNELS 3 Zrotation Xrotation Yrotation
    JOINT chest
    {
      OFFSET 0 11.7043 -0.48768
      CHANNELS 3 Zrotation Xrotation Yrotation
      JOINT neck
      {
        OFFSET 0 22.1894 -2.19456
        CHANNELS 3 Zrotation Xrotation Yrotation
        JOINT head
        {
          OFFSET -0.24384 7.07133 1.2192
          CHANNELS 3 Zrotation Xrotation Yrotation
          JOINT leftEye
          {
            OFFSET 4.14528 8.04674 8.04672
            CHANNELS 3 Zrotation Xrotation Yrotation
            End Site
            {
              OFFSET 1 0 0
            }
          }
          JOINT rightEye
          {
            OFFSET -3.6576 8.04674 8.04672
            CHANNELS 3 Zrotation Xrotation Yrotation
            End Site
            {
              OFFSET 1 0 0
            }
          }
        }
      }
      JOINT rCollar
      {
        OFFSET -2.68224 19.2634 -4.8768
        CHANNELS 3 Zrotation Xrotation Yrotation
        JOINT rShldr
        {
          OFFSET -8.77824 -1.95073 1.46304
          CHANNELS 3 Zrotation Xrotation Yrotation
          JOINT rForeArm
          {
            OFFSET -28.1742 -1.7115 0.48768
            CHANNELS 3 Zrotation Xrotation Yrotation
            JOINT rHand
            {
              OFFSET -22.5879 0.773209 7.07136
              CHANNELS 3 Zrotation Xrotation Yrotation
              JOINT rThumb1
              {
                OFFSET -1.2192 -0.487915 3.41376
                CHANNELS 3 Zrotation Xrotation Yrotation
                JOINT rThumb2
                {
                  OFFSET -3.37035 -0.52449 3.41376
                  CHANNELS 3 Zrotation Xrotation Yrotation
                  End Site
                  {
                    OFFSET -1.78271 -1.18214 1.43049
                  }
                }
              }
              JOINT rIndex1
              {
                OFFSET -7.75947 0.938293 5.60832
                CHANNELS 3 Zrotation Xrotation Yrotation
                JOINT rIndex2
                {
                  OFFSET -2.54057 -0.884171 1.56538
                  CHANNELS 3 Zrotation Xrotation Yrotation
                  End Site
                  {
                    OFFSET -1.62519 -0.234802 1.16502
                  }
                }
              }
              JOINT rMid1
              {
                OFFSET -8.24714 1.18213 3.41376
                CHANNELS 3 Zrotation Xrotation Yrotation
                JOINT rMid2
                {
                  OFFSET -3.10165 -0.590103 1.0647
                  CHANNELS 3 Zrotation Xrotation Yrotation
                  End Site
                  {
                    OFFSET -2.48547 -0.328903 0.83742
                  }
                }
              }
              JOINT rRing1
              {
                OFFSET -8.82822 0.546677 1.51678
                CHANNELS 3 Zrotation Xrotation Yrotation
                JOINT rRing2
                {
                  OFFSET -2.60934 -0.819778 -0.0198488
                  CHANNELS 3 Zrotation Xrotation Yrotation
                  End Site
                  {
                    OFFSET -2.33842 -0.294052 0.168128
                  }
                }
              }
              JOINT rPinky1
              {
                OFFSET -8.27202 -0.0477905 -0.4584
                CHANNELS 3 Zrotation Xrotation Yrotation
                JOINT rPinky2
                {
                  OFFSET -1.82734 -0.647385 -0.700984
                  CHANNELS 3 Zrotation Xrotation Yrotation
                  End Site
                  {
                    OFFSET -1.69225 -0.51767 -0.607171
                  }
                }
              }
            }
          }
        }
      }
      JOINT lCollar
      {
        OFFSET 2.68224 19.2634 -4.8768
        CHANNELS 3 Zrotation Xrotation Yrotation
        JOINT lShldr
        {
          OFFSET 8.77824 -1.95073 1.46304
          CHANNELS 3 Zrotation Xrotation Yrotation
          JOINT lForeArm
          {
            OFFSET 28.1742 -1.7115 0.48768
            CHANNELS 3 Zrotation Xrotation Yrotation
            JOINT lHand
            {
              OFFSET 22.5879 0.773209 7.07136
              CHANNELS 3 Zrotation Xrotation Yrotation
              JOINT lThumb1
              {
                OFFSET 1.2192 -0.487915 3.41376
                CHANNELS 3 Zrotation Xrotation Yrotation
                JOINT lThumb2
                {
                  OFFSET 3.37035 -0.52449 3.41376
                  CHANNELS 3 Zrotation Xrotation Yrotation
                  End Site
                  {
                    OFFSET 1.78271 -1.18214 1.43049
                  }
                }
              }
              JOINT lIndex1
              {
                OFFSET 7.75947 0.938293 5.60832
                CHANNELS 3 Zrotation Xrotation Yrotation
                JOINT lIndex2
                {
                  OFFSET 2.54057 -0.884171 1.56538
                  CHANNELS 3 Zrotation Xrotation Yrotation
                  End Site
                  {
                    OFFSET 1.62519 -0.234802 1.16502
                  }
                }
              }
              JOINT lMid1
              {
                OFFSET 8.24714 1.18213 3.41376
                CHANNELS 3 Zrotation Xrotation Yrotation
                JOINT lMid2
                {
                  OFFSET 3.10165 -0.590103 1.0647
                  CHANNELS 3 Zrotation Xrotation Yrotation
                  End Site
                  {
                    OFFSET 2.48547 -0.328903 0.83742
                  }
                }
              }
              JOINT lRing1
              {
                OFFSET 8.82822 0.546677 1.51678
                CHANNELS 3 Zrotation Xrotation Yrotation
                JOINT lRing2
                {
                  OFFSET 2.60934 -0.819778 -0.0198488
                  CHANNELS 3 Zrotation Xrotation Yrotation
                  End Site
                  {
                    OFFSET 2.33842 -0.294052 0.168128
                  }
                }
              }
              JOINT lPinky1
              {
                OFFSET 8.27202 -0.0477905 -0.4584
                CHANNELS 3 Zrotation Xrotation Yrotation
                JOINT lPinky2
                {
                  OFFSET 1.82734 -0.647385 -0.700984
                  CHANNELS 3 Zrotation Xrotation Yrotation
                  End Site
                  {
                    OFFSET 1.69225 -0.51767 -0.607171
                  }
                }
              }
            }
          }
        }
      }
    }
  }
  JOINT rButtock
  {
    OFFSET -8.77824 4.35084 1.2192
    CHANNELS 3 Zrotation Xrotation Yrotation
    JOINT rThigh
    {
      OFFSET 0 -1.70687 -2.19456
      CHANNELS 3 Zrotation Xrotation Yrotation
      JOINT rShin
      {
        OFFSET 0 -36.8199 0.73152
        CHANNELS 3 Zrotation Xrotation Yrotation
        JOINT rFoot
        {
          OFFSET 0.73152 -45.1104 -5.12064
          CHANNELS 3 Zrotation Xrotation Yrotation
          End Site
          {
            OFFSET -1.1221 -3.69964 12.103
          }
        }
      }
    }
  }
  JOINT lButtock
  {
    OFFSET 8.77824 4.35084 1.2192
    CHANNELS 3 Zrotation Xrotation Yrotation
    JOINT lThigh
    {
      OFFSET 0 -1.70687 -2.19456
      CHANNELS 3 Zrotation Xrotation Yrotation
      JOINT lShin
      {
        OFFSET 0 -36.8199 0.73152
        CHANNELS 3 Zrotation Xrotation Yrotation
        JOINT lFoot
        {
          OFFSET -0.73152 -45.1104 -5.12064
          CHANNELS 3 Zrotation Xrotation Yrotation
          End Site
          {
            OFFSET 1.1221 -3.69964 12.103
          }
        }
      }
    }
  }
}
MOTION
Frames:	4
Frame Time:	0.00833333
-2.88504 82.617 46.9304 -8.0846 -1.2469 7.6254 1.73434 -4.61578 4.76121 -2.89181 -10.0896 0.841023 0.155606 2.98207 -2.42885 6.4585 13.1718 -5.53372 -0.0 0.0 0.0 -0.0 0.0 0.0 -1.49065e-13 5.20834e-14 1.89152e-14 28.239 56.2314 61.7294 -27.6438 -28.7167 64.2216 0.203688 -7.61198 -1.00246 1.27499e-10 1.02055e-09 -5.14947e-10 2.23623e-10 1.75766e-09 -8.87285e-10 1.275e-10 1.02056e-09 -5.14955e-10 7.73091 5.47488 0.417314 1.27499e-10 1.02055e-09 -5.14945e-10 2.90554 0.965183 0.102902 1.27502e-10 1.02055e-09 -5.14943e-10 10.2786 0.731801 0.0259123 1.27494e-10 1.02055e-09 -5.14936e-10 2.22167 -0.733487 -0.20892 -1.49074e-13 5.20801e-14 1.87409e-14 -65.9808 48.7377 -21.4734 27.4585 -28.0118 -64.0826 0.0105366 -2.93375 0.412675 4.17181e-10 -5.09252e-09 -4.7381e-10 7.21034e-10 -8.79368e-09 -8.17028e-10 4.17176e-10 -5.09254e-09 -4.73808e-10 -7.73091 5.47488 -0.417314 4.17184e-10 -5.09251e-09 -4.73807e-10 -2.90554 0.965183 -0.102902 4.1718e-10 -5.09251e-09 -4.73805e-10 -10.2786 0.731801 -0.0259123 4.17188e-10 -5.09251e-09 -4.73808e-10 -2.22167 -0.733487 0.20892 -2.03217e-16 0.0 -3.88251e-19 3.20429 -2.50638 23.984 0.0285104 -1.38235 0.272093 -5.18992 -5.699 -24.6323 2.03217e-16 0.0 3.88251e-19 -1.42675 -4.11551 -39.9686 0.00699003 11.8299 -0.133698 10.4367 -12.8203 48.3773
-2.87782 82.6072 46.9448 -7.9423 -1.6189 7.683 1.45353 -4.79116 5.09786 -2.91799 -10.0196 0.936367 0.211735 2.74836 -2.40497 6.44941 13.544 -5.52109 -0.0 0.0 0.0 -0.0 0.0 0.0 -1.02002e-13 3.10131e-14 7.39945e-14 24.0716 58.1407 65.7064 -26.9249 -26.0256 59.2272 -0.00133826 -18.7809 -2.59107 1.5035e-10 1.4249e-09 -6.4422e-10 2.71254e-10 2.4548e-09 -1.11001e-09 1.50352e-10 1.4249e-09 -6.44226e-10 7.73091 5.47488 0.417314 1.5035e-10 1.4249e-09 -6.44221e-10 2.90554 0.965183 0.102902 1.50355e-10 1.42489e-09 -6.44218e-10 10.2786 0.731801 0.0259123 1.50344e-10 1.4249e-09 -6.44213e-10 2.22167 -0.733487 -0.20892 -1.01973e-13 3.10082e-14 7.38733e-14 -65.8793 48.6563 -21.5005 27.4446 -27.9557 -63.993 0.00965939 -2.81168 0.395474 4.84577e-10 -6.42755e-09 -7.27927e-10 8.38476e-10 -1.1113e-08 -1.25735e-09 4.84569e-10 -6.42755e-09 -7.27921e-10 -7.73091 5.47488 -0.417314 4.8458e-10 -6.42755e-09 -7.27924e-10 -2.90554 0.965183 -0.102902 4.84578e-10 -6.42755e-09 -7.27924e-10 -10.2786 0.731801 -0.0259123 4.84585e-10 -6.42755e-09 -7.27926e-10 -2.22167 -0.733487 0.20892 -2.03217e-16 0.0 -3.88251e-19 2.9674 -2.54283 24.0215 0.0285043 -1.39574 0.273949 -5.08213 -5.59264 -24.3822 2.03217e-16 0.0 3.88251e-19 -1.72758 -4.0386 -39.9708 0.00760161 11.8895 -0.126154 10.7903 -13.0518 48.7886
-2.85408 82.5984 46.9406 -7.7392 -1.9585 7.7382 1.18715 -4.95987 5.40137 -2.91992 -9.96068 1.0246 0.293361 2.50866 -2.38003 6.36947 13.883 -5.50245 -0.0 0.0 0.0 -0.0 0.0 0.0 -4.40237e-14 -3.97215e-15 1.21521e-13 19.6382 59.4332 69.9145 -25.8635 -23.0978 55.0334 -0.91363 -29.6905 -4.47729 1.65058e-10 1.90182e-09 -8.07787e-10 3.06259e-10 3.28005e-09 -1.39228e-09 1.65059e-10 1.90181e-09 -8.07791e-10 7.73091 5.47488 0.417314 1.65058e-10 1.90181e-09 -8.07789e-10 2.90554 0.965183 0.102902 1.65064e-10 1.90181e-09 -8.07785e-10 10.2786 0.731801 0.0259123 1.65052e-10 1.90181e-09 -8.07782e-10 2.22167 -0.733487 -0.20892 -4.39627e-14 -3.97851e-15 1.21452e-13 -65.8415 48.5789 -21.4787 27.43 -27.8973 -63.9004 0.00883845 -2.68785 0.378031 4.46338e-10 -6.22948e-09 -7.8265e-10 7.72932e-10 -1.07797e-08 -1.35315e-09 4.46326e-10 -6.22947e-09 -7.8264e-10 -7.73091 5.47488 -0.417314 4.4634e-10 -6.22948e-09 -7.82647e-10 -2.90554 0.965183 -0.102902 4.46339e-10 -6.22948e-09 -7.8265e-10 -10.2786 0.731801 -0.0259123 4.46345e-10 -6.22948e-09 -7.82651e-10 -2.22167 -0.733487 0.20892 -2.03217e-16 0.0 -3.88251e-19 2.74318 -2.60418 24.0622 0.0284751 -1.40838 0.27549 -4.98399 -5.48945 -24.1632 2.03217e-16 0.0 3.88251e-19 -2.0122 -3.99664 -39.9869 0.00816694 11.9457 -0.118897 11.1266 -13.2666 49.1746
-2.84255 82.5966 46.931 -7.6236 -2.2213 7.777 1.00987 -5.06033 5.60421 -2.89177 -9.94999 1.08609 0.35907 2.33932 -2.35967 6.26153 14.0351 -5.47497 -0.0 0.0 0.0 -0.0 0.0 0.0 -1.91195e-14 -4.92947e-14 1.41535e-13 16.58 60.1439 72.7841 -24.9424 -20.9729 52.7459 -1.94919 -36.3398 -5.93429 1.57037e-10 2.51647e-09 -1.08416e-09 3.01722e-10 4.34825e-09 -1.86977e-09 1.57039e-10 2.51647e-09 -1.08416e-09 7.73091 5.47488 0.417314 1.57037e-10 2.51646e-09 -1.08416e-09 2.90554 0.965183 0.102902 1.57044e-10 2.51646e-09 -1.08415e-09 10.2786 0.731801 0.0259123 1.57031e-10 2.51647e-09 -1.08415e-09 2.22167 -0.733487 -0.20892 -1.90484e-14 -4.93017e-14 1.41485e-13 -65.9033 48.5118 -21.3797 27.4198 -27.8572 -63.8372 0.00823627 -2.59033 0.364297 3.57638e-10 -4.88208e-09 -5.88927e-10 6.19369e-10 -8.45042e-09 -1.01884e-09 3.57625e-10 -4.88205e-09 -5.88915e-10 -7.73091 5.47488 -0.417314 3.5764e-10 -4.88208e-09 -5.88924e-10 -2.90554 0.965183 -0.102902 3.57639e-10 -4.88208e-09 -5.88929e-10 -10.2786 0.731801 -0.0259123 3.57645e-10 -4.88207e-09 -5.88931e-10 -2.22167 -0.733487 0.20892 -2.03217e-16 0.0 -3.88251e-19 2.60194 -2.678 24.0909 0.028505 -1.41559 0.276779 -4.91907 -5.42223 -24.0118 2.03217e-16 0.0 3.88251e-19 -2.20025 -3.98478 -40.0548 0.00855449 11.9834 -0.113161 11.3862 -13.4201 49.485
